<svg width="31" height="31" viewBox="0 0 31 31" fill="none" xmlns="http://www.w3.org/2000/svg">
<path d="M28.6488 13.4097L28.512 12.8291H15.8916V18.1705H23.4321C22.6493 21.8881 19.0164 23.845 16.049 23.845C13.8899 23.845 11.614 22.9368 10.1076 21.477C9.31279 20.6945 8.68016 19.7629 8.24588 18.7356C7.8116 17.7083 7.5842 16.6054 7.57672 15.4901C7.57672 13.2402 8.58785 10.9897 10.0591 9.50931C11.5304 8.02894 13.7525 7.20066 15.9619 7.20066C18.4921 7.20066 20.3055 8.54419 20.9836 9.15692L24.7793 5.38122C23.6658 4.40278 20.607 1.93732 15.8395 1.93732C12.1613 1.93732 8.63447 3.34624 6.05639 5.91585C3.51221 8.4461 2.19531 12.105 2.19531 15.4998C2.19531 18.8947 3.44137 22.3707 5.90683 24.9209C8.54123 27.6407 12.2721 29.0623 16.1138 29.0623C19.6092 29.0623 22.9223 27.6927 25.2836 25.2079C27.605 22.7618 28.8057 19.3772 28.8057 15.8292C28.8057 14.3355 28.6555 13.4485 28.6488 13.4097Z" fill="#2D3748"/>
</svg>
