<svg width="15" height="16" viewBox="0 0 15 16" fill="none" xmlns="http://www.w3.org/2000/svg">
<path d="M9.7452 2.39181C9.17508 1.77628 8.37879 1.43732 7.49989 1.43732C6.61629 1.43732 5.81737 1.77423 5.24989 2.38595C4.67625 3.00441 4.39676 3.84493 4.46239 4.75255C4.59247 6.54317 5.95506 7.99981 7.49989 7.99981C9.04471 7.99981 10.405 6.54347 10.5371 4.75314C10.6036 3.85372 10.3223 3.01495 9.7452 2.39181Z" fill="currentColor"/>
<path d="M12.6562 14.5616H2.34367C2.20868 14.5634 2.07501 14.535 1.95237 14.4786C1.82972 14.4222 1.7212 14.3392 1.63468 14.2356C1.44425 14.0079 1.36749 13.6971 1.42433 13.3827C1.6716 12.0111 2.44327 10.8588 3.65616 10.0499C4.7337 9.33186 6.09864 8.93665 7.49991 8.93665C8.90118 8.93665 10.2661 9.33215 11.3437 10.0499C12.5566 10.8585 13.3282 12.0108 13.5755 13.3824C13.6323 13.6968 13.5556 14.0076 13.3651 14.2353C13.2787 14.339 13.1701 14.422 13.0475 14.4785C12.9249 14.535 12.7912 14.5634 12.6562 14.5616Z" fill="currentColor"/>
</svg>
