<svg width="12" height="12" viewBox="0 0 12 12" fill="none" xmlns="http://www.w3.org/2000/svg">
<g clip-path="url(#clip0_92_190)">
<path d="M7.64658 2.13496C7.2285 1.68357 6.64455 1.435 6.00002 1.435C5.35205 1.435 4.76617 1.68207 4.35002 2.13066C3.92936 2.5842 3.7244 3.20058 3.77252 3.86617C3.86791 5.17929 4.86715 6.2475 6.00002 6.2475C7.13289 6.2475 8.13041 5.17951 8.2273 3.8666C8.27607 3.20703 8.06982 2.59193 7.64658 2.13496Z" fill="white"/>
<path d="M9.78137 11.0596H2.21887C2.11989 11.0609 2.02186 11.0401 1.93192 10.9987C1.84198 10.9573 1.76239 10.8964 1.69895 10.8204C1.5593 10.6535 1.50301 10.4256 1.54469 10.195C1.72602 9.18914 2.29192 8.34416 3.18137 7.75098C3.97157 7.22439 4.97252 6.93457 6.00012 6.93457C7.02772 6.93457 8.02867 7.22461 8.81887 7.75098C9.70832 8.34394 10.2742 9.18893 10.4555 10.1948C10.4972 10.4254 10.4409 10.6533 10.3013 10.8202C10.2379 10.8963 10.1583 10.9572 10.0684 10.9986C9.97841 11.04 9.88037 11.0608 9.78137 11.0596V11.0596Z" fill="white"/>
</g>
<defs>
<clipPath id="clip0_92_190">
<rect width="11" height="11" fill="white" transform="translate(0.5 0.747681)"/>
</clipPath>
</defs>
</svg>
