<svg width="10" height="10" viewBox="0 0 10 10" fill="none" xmlns="http://www.w3.org/2000/svg">
<path d="M4.18623 3.33953C4.18623 3.61883 4.18623 3.88953 4.27432 4.14304C3.34834 5.23015 0.903418 8.10261 0.675684 8.32175C0.630422 8.36236 0.594214 8.41205 0.569414 8.46757C0.544614 8.52309 0.531777 8.58321 0.531738 8.64402C0.531738 8.82664 0.643457 9.00281 0.737988 9.10164C0.879785 9.24988 1.48564 9.81062 1.59736 9.7032C1.92822 9.38093 1.99482 9.295 2.13018 9.16179C2.33428 8.96199 2.10869 8.55379 2.17959 8.38836C2.25049 8.22293 2.32568 8.1907 2.44814 8.16492C2.57061 8.13914 2.7876 8.22722 2.95732 8.22937C3.13564 8.23152 3.23232 8.15632 3.36553 8.03172C3.47295 7.93289 3.55029 7.8405 3.55244 7.69656C3.55674 7.5032 3.27744 7.24754 3.48584 7.04343C3.69424 6.83933 3.99502 7.17664 4.21631 7.15086C4.4376 7.12507 4.70615 6.81785 4.73408 6.68679C4.76201 6.55574 4.48271 6.21843 4.52568 6.02722C4.54072 5.96277 4.67178 5.81238 4.77061 5.79089C4.86943 5.76941 5.30771 5.93914 5.40654 5.91765C5.52685 5.89187 5.6665 5.76511 5.78037 5.69422C6.11338 5.83816 6.41631 5.89617 6.80518 5.89617C8.27685 5.89617 9.46924 4.7489 9.46924 3.33523C9.46924 1.92156 8.27685 0.779236 6.80518 0.779236C5.3335 0.779236 4.18623 1.92586 4.18623 3.33953ZM8.09424 2.84174C8.09424 2.97771 8.05392 3.11063 7.97837 3.22369C7.90283 3.33675 7.79546 3.42487 7.66983 3.4769C7.54421 3.52894 7.40598 3.54255 7.27261 3.51603C7.13925 3.4895 7.01675 3.42402 6.9206 3.32787C6.82445 3.23172 6.75898 3.10922 6.73245 2.97586C6.70592 2.8425 6.71954 2.70426 6.77157 2.57864C6.82361 2.45302 6.91172 2.34564 7.02478 2.2701C7.13784 2.19456 7.27076 2.15424 7.40674 2.15424C7.58907 2.15424 7.76394 2.22667 7.89287 2.3556C8.0218 2.48453 8.09424 2.6594 8.09424 2.84174Z" fill="#2D3748"/>
</svg>
